{"title":"K-911 1999 DVDrip English Klam","uid":6584442,"size":1471805922,"categoryP":"video","categoryS":"movies","magnet":"?xt=urn:btih:e578fa104e6beb8879cfd4c1847fec620ab5f8be&amp;dn=K-911+1999+DVDrip+English+Klam&amp;tr=udp%3A%2F%2Ftracker.openbittorrent.com%3A80&amp;tr=udp%3A%2F%2Fopen.demonii.com%3A1337&amp;tr=udp%3A%2F%2Ftracker.coppersurfer.tk%3A6969&amp;tr=udp%3A%2F%2Fexodus.desync.com%3A6969","seeders":1,"leechers":1,"uploader":"Klambake","files":-1,"time":1312549993,"description":"With: James Belushi, Christine Tucci and James Handy\n\nAgent Dooley (Belushi), bekend uit de vorige 'K-9' film, en zijn hond Jerry Lee proberen een crimineel op te sporen die hen terroriseert. Omdat ze beide echter uit vorm zijn, moeten ze gedwongen samenwerken met een vrouwelijke sergeant (Tucci) en haar Dobermann Zeus.\n\nDooley and his dog Jerry Lee still are active as a police team with the LAPD. However, years starting...\n\n------------------ Dutch Friends ------------------\nYou can find my Friends at: http://www.Film-Test.nl \n------ They got my dutchs subs ---- and more ------\n\nGeneral:\n\nComplete name                    : K-911\\K-911.avi\nFormat                           : AVI\nFormat/Info                      : Audio Video Interleave\nFile size                        : 1.37 GiB\nDuration                         : 1h 27mn\nOverall bit rate                 : 2 249 Kbps\n\nVideo:\n\nFormat                           : MPEG-4 Visual\nFormat profile                   : Simple@L3\nFormat settings, BVOP            : No\nFormat settings, QPel            : No\nFormat settings, GMC             : No warppoints\nFormat settings, Matrix          : Default (H.263)\nCodec ID                         : XVID\nCodec ID/Hint                    : XviD\nDuration                         : 1h 27mn\nBit rate                         : 1 854 Kbps\nWidth                            : 704 pixels\nHeight                           : 396 pixels\nDisplay aspect ratio             : 16:9\nFrame rate                       : 25.000 fps\nColor space                      : YUV\nChroma subsampling               : 4:2:0\nBit depth                        : 8 bits\nScan type                        : Progressive\nBits/(Pixel*Frame)               : 0.266\nStream size                      : 1.13 GiB (82%)\nWriting library                  : XviD 1.1.2 (UTC 2006-11-01)\n\nAudio:\n\nFormat                           : AC-3\nFormat/Info                      : Audio Coding 3\nMode extension                   : CM (complete main)\nCodec ID                         : 2000\nDuration                         : 1h 27mn\nBit rate mode                    : Constant\nBit rate                         : 384 Kbps\nChannel(s)                       : 5 channels\nChannel positions                : Front: L C R, Side: L R\nSampling rate                    : 48.0 KHz\nBit depth                        : 16 bits\nStream size                      : 240 MiB (17%)\nAlignment                        : Aligned on interleaves\nInterleave, duration             : 32 ms (0.80 video frame)\n\n","torrent":{"xt":"urn:btih:e578fa104e6beb8879cfd4c1847fec620ab5f8be","amp;dn":"K-911+1999+DVDrip+English+Klam","amp;tr":["udp%3A%2F%2Ftracker.openbittorrent.com%3A80","udp%3A%2F%2Fopen.demonii.com%3A1337","udp%3A%2F%2Ftracker.coppersurfer.tk%3A6969","udp%3A%2F%2Fexodus.desync.com%3A6969"],"infoHash":"e578fa104e6beb8879cfd4c1847fec620ab5f8be","infoHashBuffer":{"type":"Buffer","data":[229,120,250,16,78,107,235,136,121,207,212,193,132,127,236,98,10,181,248,190]},"announce":[],"urlList":[]}}